# Blender 3.5.0
# www.blender.org
mtllib Zpatati.mtl
o PTI
v 0.254549 0.123794 -0.686181
v 0.228312 0.065683 -0.686873
v 0.272982 0.216998 -0.684499
v 0.204932 0.035946 -0.694818
v 0.277380 0.161188 -0.717448
v 0.277137 0.112654 -0.736332
v 0.175116 0.010084 -0.715284
v 0.267995 0.301844 -0.767781
v 0.265856 0.048456 -0.765016
v 0.218255 0.026095 -0.727607
v 0.086057 0.010670 -0.735673
v 0.137976 0.002543 -0.723859
v 0.286681 0.186678 -0.741044
v 0.288472 0.136300 -0.750905
v 0.095207 0.007278 -0.763689
v 0.111078 0.002316 -0.747407
v 0.127880 -0.004193 -0.749146
v 0.159799 -0.010107 -0.747532
v 0.185649 -0.007181 -0.746321
v 0.286637 0.096636 -0.769369
v 0.110657 -0.002409 -0.765687
v 0.131611 -0.025901 -0.772232
v 0.186745 -0.037738 -0.770447
v 0.229554 -0.034208 -0.787172
v 0.292562 0.170061 -0.782421
v 0.295188 0.128833 -0.781122
v 0.243282 -0.015630 -0.787226
v 0.084431 0.008165 -0.803740
v 0.107782 -0.016708 -0.786253
v 0.207196 -0.098860 -0.811144
v 0.158096 -0.164583 -0.840787
v 0.268345 0.216635 -0.931413
v 0.293957 0.142443 -0.812807
v 0.289044 0.104129 -0.821566
v 0.279564 0.043862 -0.809273
v 0.235212 -0.072665 -0.817317
v 0.246178 -0.041718 -0.810768
v 0.093898 -0.102381 -0.850625
v 0.254064 -0.018895 -0.804631
v 0.251398 -0.068384 -0.837401
v 0.256432 -0.037629 -0.825661
v 0.216929 -0.146336 -0.849631
v 0.262821 -0.011141 -0.815838
v 0.259774 -0.045977 -0.841658
v 0.241406 -0.101847 -0.842452
v 0.164651 -0.273172 -0.912822
v 0.265093 -0.022402 -0.838453
v 0.263510 -0.040848 -0.854246
v 0.258435 -0.067751 -0.856519
v 0.250334 -0.097109 -0.855461
v 0.241129 -0.125780 -0.861272
v 0.226976 -0.159029 -0.868322
v 0.265549 -0.029644 -0.867962
v 0.253471 -0.100926 -0.875199
v 0.240869 -0.150980 -0.893465
v 0.232064 -0.169191 -0.887519
v 0.247956 -0.123926 -0.921351
v 0.268468 0.015705 -0.912701
v 0.127161 -0.282321 -0.916484
v 0.202745 -0.260335 -0.952281
v 0.108025 -0.300928 -0.932561
v 0.144867 -0.291447 -0.917863
v 0.090979 -0.244983 -0.934508
v 0.247930 -0.095290 -0.955149
v 0.262441 0.083906 -0.962403
v 0.231166 0.369146 -0.993401
v 0.059085 -0.104031 -0.948996
v 0.257378 -0.028968 -0.963069
v 0.080311 -0.238967 -0.983397
v 0.252232 -0.010397 -0.980113
v 0.244250 -0.077803 -0.980482
v 0.068873 -0.164195 -1.006459
v 0.242724 -0.028652 -0.992758
v 0.225523 -0.062795 -1.005605
v 0.199378 -0.251718 -0.997396
v 0.209224 -0.168003 -1.001316
v 0.238200 0.128444 -1.020094
v 0.240662 0.024343 -0.999185
v 0.221998 0.331926 -1.054683
v 0.216588 0.217229 -1.083073
v 0.088100 -0.245673 -1.035851
v 0.192408 -0.001614 -1.050170
v 0.206584 -0.026867 -1.026504
v 0.169888 -0.253216 -1.032898
v 0.158766 -0.076850 -1.056546
v 0.059869 -0.069129 -1.025390
v 0.084320 -0.171336 -1.038527
v 0.134028 -0.184719 -1.049235
v 0.107448 -0.103656 -1.058662
v 0.098660 -0.176268 -1.049672
v 0.115103 -0.153088 -1.053493
v 0.189420 0.112369 -1.096419
v 0.112218 -0.222218 -1.057024
v 0.098826 -0.235179 -1.053486
v 0.126176 -0.222615 -1.056104
v 0.139505 -0.242001 -1.055701
v 0.091864 0.005965 -1.094881
v 0.205610 0.272032 -1.101680
v 0.193323 0.185172 -1.114900
v 0.146828 0.082070 -1.120441
v 0.168159 0.147753 -1.128082
v 0.114828 0.096468 -1.134281
v 0.190123 0.226738 -1.122530
v 0.171540 0.204309 -1.136889
v 0.051929 0.098537 -1.127788
v 0.144291 0.202753 -1.152021
v 0.125368 0.174148 -1.154309
v 0.078876 0.018761 -0.778772
v 0.070475 0.033969 -0.827359
v 0.064170 0.004958 -0.864061
v 0.062357 0.042404 -0.843305
v 0.054756 0.046441 -0.850817
v 0.040150 0.044109 -0.868135
v 0.021743 0.008234 -0.934370
v 0.031760 -0.027334 -0.969190
v 0.009590 0.016650 -0.958304
v 0.014880 0.012290 -0.963431
v 0.008399 0.018918 -0.964027
v 0.010758 0.022167 -0.973371
v 0.022443 0.017262 -0.993376
v 0.012715 0.038224 -0.993791
v 0.009624 0.069049 -1.028085
v 0.079845 -0.081479 -1.049621
v 0.016262 0.074892 -1.068912
v 0.025307 0.063987 -1.063105
v 0.049617 0.029678 -1.074191
v 0.023821 0.086264 -1.101841
v 0.038878 0.068665 -1.095565
vn 0.8828 -0.1742 0.4363
vn 0.8852 -0.1828 0.4278
vn 0.8037 -0.3684 0.4673
vn 0.8247 -0.3451 0.4481
vn 0.6409 -0.6235 0.4477
vn 0.6430 -0.6224 0.4462
vn 0.4182 -0.8090 0.4130
vn 0.9413 -0.0323 0.3361
vn 0.9559 -0.0898 0.2797
vn 0.8915 -0.1681 0.4206
vn -0.3110 -0.9503 0.0135
vn -0.3051 -0.8829 0.3570
vn -0.2035 -0.9488 0.2416
vn -0.1882 -0.9278 0.3223
vn 0.0564 -0.8580 0.5105
vn 0.0738 -0.8607 0.5038
vn 0.4241 -0.7226 0.5459
vn 0.9727 0.1890 0.1343
vn 0.9074 -0.2111 0.3633
vn 0.8521 -0.3309 0.4055
vn -0.4959 -0.8379 0.2280
vn -0.5627 -0.6457 0.5162
vn -0.3284 -0.9126 0.2435
vn -0.1689 -0.7315 0.6606
vn -0.1772 -0.7249 0.6657
vn 0.0332 -0.6186 0.7850
vn 0.1735 -0.6064 0.7760
vn 0.3265 -0.6325 0.7023
vn 0.9821 0.1754 0.0691
vn 0.9905 0.0083 0.1374
vn 0.9773 0.0686 0.2003
vn 0.9542 -0.1614 0.2520
vn 0.6733 -0.4425 0.5923
vn -0.5162 -0.8480 0.1201
vn -0.7901 -0.4460 0.4206
vn -0.5572 -0.6433 0.5251
vn 0.1679 -0.5068 0.8455
vn 0.3590 -0.4311 0.8278
vn 0.9763 0.1929 -0.0984
vn 0.9801 0.1673 -0.1070
vn 0.9979 0.0632 -0.0116
vn 0.9672 -0.2539 0.0082
vn 0.9906 -0.1077 -0.0847
vn 0.9883 -0.1506 0.0240
vn 0.8828 -0.3528 0.3101
vn 0.6433 -0.4736 0.6015
vn 0.5730 -0.4517 0.6838
vn 0.6968 -0.3762 0.6107
vn -0.5753 -0.4297 0.6960
vn 0.7245 -0.4393 0.5312
vn 0.6424 -0.4729 0.6031
vn 0.7433 -0.4008 0.5356
vn 0.7580 -0.3807 0.5297
vn 0.8197 -0.3164 0.4775
vn 0.5683 -0.4447 0.6923
vn -0.1270 -0.4589 0.8793
vn 0.2914 -0.5656 0.7714
vn 0.9659 -0.0666 -0.2503
vn 0.8381 -0.3781 0.3933
vn 0.8984 -0.3105 0.3105
vn 0.8399 -0.3549 0.4107
vn 0.8033 -0.3970 0.4441
vn 0.9026 -0.2744 0.3317
vn 0.7708 -0.3138 0.5543
vn 0.6071 -0.4407 0.6613
vn -0.5466 -0.4527 0.7045
vn 0.2821 -0.5185 0.8072
vn 0.9186 -0.3090 0.2462
vn 0.9135 -0.2498 0.3212
vn 0.9168 -0.3131 0.2480
vn 0.9588 -0.1981 0.2038
vn 0.9047 -0.2767 0.3239
vn 0.8319 -0.3171 0.4554
vn 0.9135 -0.2402 0.3283
vn 0.8263 -0.3541 0.4381
vn 0.6715 -0.4628 0.5787
vn 0.6551 -0.4130 0.6326
vn 0.9669 -0.2441 0.0748
vn 0.9529 -0.2402 0.1850
vn 0.9912 -0.1243 0.0458
vn 0.9827 -0.1850 -0.0050
vn 0.9844 -0.1711 0.0422
vn 0.9464 -0.2540 0.1995
vn 0.9174 -0.3373 0.2110
vn 0.9162 -0.3191 0.2424
vn 0.8991 -0.3481 0.2652
vn 0.7906 -0.4292 0.4367
vn 0.9691 -0.2466 0.0071
vn 0.9841 -0.1671 -0.0601
vn 0.9887 -0.1327 -0.0700
vn -0.4871 -0.3782 0.7872
vn 0.9514 -0.3034 -0.0526
vn 0.9085 -0.3930 0.1418
vn -0.3515 -0.3784 0.8563
vn 0.4077 -0.6385 0.6528
vn -0.1893 -0.4954 0.8478
vn 0.2743 -0.5200 0.8089
vn 0.6897 -0.5301 0.4934
vn 0.9859 -0.1634 -0.0364
vn -0.8592 -0.2462 0.4484
vn 0.6812 -0.5568 0.4753
vn 0.9850 -0.1491 -0.0868
vn 0.9866 -0.1241 -0.1059
vn 0.9826 -0.0004 -0.1856
vn 0.9828 -0.0438 -0.1793
vn 0.9753 0.1969 -0.1005
vn -0.9271 -0.1758 0.3310
vn 0.9851 -0.1503 -0.0836
vn 0.9395 -0.2611 -0.2219
vn 0.9830 -0.0430 -0.1783
vn -0.9623 -0.1987 0.1855
vn 0.9140 -0.1061 -0.3916
vn 0.9531 -0.1660 -0.2530
vn -0.9881 -0.1535 -0.0076
vn 0.9435 -0.0404 -0.3289
vn 0.8587 -0.0989 -0.5028
vn 0.7531 -0.1373 -0.6434
vn 0.7509 -0.1426 -0.6449
vn 0.9051 -0.2769 -0.3226
vn 0.9011 -0.0648 -0.4287
vn 0.9629 0.1413 -0.2299
vn 0.8478 -0.1239 -0.5157
vn 0.8579 0.0036 -0.5138
vn 0.9568 -0.2641 -0.1218
vn 0.8234 -0.0366 -0.5663
vn 0.9324 0.0424 -0.3591
vn 0.9459 0.0353 -0.3227
vn -0.9750 -0.1864 -0.1209
vn 0.6744 -0.0630 -0.7356
vn 0.7498 -0.1132 -0.6520
vn 0.7571 -0.1669 -0.6316
vn 0.7662 -0.1197 -0.6314
vn 0.6816 -0.0647 -0.7289
vn 0.6185 -0.1274 -0.7754
vn -0.9025 -0.1647 -0.3980
vn -0.9045 -0.0612 -0.4221
vn 0.6891 -0.2505 -0.6800
vn 0.6184 -0.1253 -0.7758
vn 0.5569 -0.1826 -0.8102
vn -0.6183 -0.0224 -0.7856
vn -0.0691 -0.1143 -0.9910
vn 0.0880 -0.0901 -0.9920
vn 0.8455 -0.1816 -0.5021
vn -0.3071 0.0613 -0.9497
vn 0.2785 0.0374 -0.9597
vn 0.0802 -0.0857 -0.9931
vn -0.6021 0.0499 -0.7968
vn -0.8359 -0.0621 -0.5454
vn -0.3093 0.0606 -0.9490
vn 0.0695 0.1640 -0.9840
vn 0.2184 0.1301 -0.9672
vn 0.6278 0.1463 -0.7645
vn 0.5245 0.0723 -0.8483
vn 0.9464 0.0013 -0.3230
vn 0.6959 -0.2543 -0.6716
vn 0.1872 -0.2841 -0.9404
vn 0.8469 -0.1547 -0.5087
vn 0.9202 0.0526 -0.3879
vn 0.8681 -0.1653 -0.4680
vn 0.6069 -0.2568 -0.7521
vn 0.6835 -0.2138 -0.6979
vn 0.2363 -0.3471 -0.9076
vn 0.0237 -0.4041 -0.9144
vn 0.8275 -0.0247 -0.5610
vn 0.8254 -0.0398 -0.5632
vn 0.6304 -0.1561 -0.7604
vn 0.6168 -0.2856 -0.7334
vn -0.1074 -0.3738 -0.9213
vn 0.4861 -0.1628 -0.8586
vn 0.3997 -0.2329 -0.8866
vn 0.2748 -0.2748 -0.9214
vn 0.6706 -0.0837 -0.7371
vn 0.4166 -0.2047 -0.8857
vn -0.6635 -0.7304 0.1623
vn -0.5294 -0.8455 -0.0705
vn -0.7585 -0.3084 0.5741
vn -0.9243 -0.2057 0.3214
vn -0.9222 -0.2152 0.3212
vn -0.9109 -0.2329 0.3406
vn -0.7459 -0.3502 0.5666
vn -0.6896 -0.3576 0.6298
vn -0.7809 -0.4322 0.4511
vn -0.9198 -0.2136 0.3291
vn -0.8142 -0.3328 0.4758
vn -0.9451 -0.3218 0.0568
vn -0.9004 -0.4062 0.1559
vn -0.7029 -0.6991 -0.1308
vn -0.6401 -0.6611 -0.3915
vn -0.9432 -0.2966 0.1499
vn -0.7455 -0.6010 -0.2881
vn -0.8965 -0.3408 -0.2830
vn -0.8324 -0.3940 -0.3896
vn -0.9250 -0.1566 -0.3462
vn -0.9216 -0.3153 -0.2264
vn -0.7942 -0.1133 -0.5970
vn -0.4026 -0.1319 -0.9058
vn -0.6941 -0.6882 -0.2113
vn -0.8436 -0.4349 -0.3149
vn -0.8609 -0.4056 -0.3072
vn -0.5245 -0.3334 -0.7834
vn -0.9015 -0.2632 -0.3436
vn -0.8041 -0.3282 -0.4956
vn -0.6020 -0.7020 -0.3806
vn -0.8147 -0.4657 -0.3455
vn -0.6392 -0.6770 -0.3648
vn -0.8039 -0.4405 -0.3996
vn -0.5915 -0.5068 -0.6271
vn -0.5557 -0.3207 -0.7671
vn -0.3942 -0.5889 -0.7056
vn -0.5610 -0.4814 -0.6735
vt 0.779900 0.566600
vt 0.780100 0.535300
vt 0.779200 0.616700
vt 0.783300 0.519300
vt 0.792500 0.586700
vt 0.800100 0.560600
vt 0.791600 0.505400
vt 0.812700 0.662400
vt 0.811600 0.526100
vt 0.796600 0.514000
vt 0.799800 0.505700
vt 0.795000 0.501400
vt 0.802000 0.600400
vt 0.805900 0.573300
vt 0.811100 0.503900
vt 0.804500 0.501200
vt 0.805200 0.497700
vt 0.804600 0.494600
vt 0.804100 0.496100
vt 0.813400 0.552000
vt 0.811900 0.498700
vt 0.814500 0.486100
vt 0.813800 0.479700
vt 0.820500 0.481600
vt 0.818600 0.591500
vt 0.818100 0.569300
vt 0.820600 0.491600
vt 0.827200 0.504400
vt 0.820200 0.491000
vt 0.830200 0.446800
vt 0.842100 0.411500
vt 0.878600 0.616600
vt 0.830900 0.576600
vt 0.834400 0.556000
vt 0.829400 0.523600
vt 0.832700 0.460900
vt 0.830000 0.477600
vt 0.846100 0.444900
vt 0.827600 0.489800
vt 0.840800 0.463200
vt 0.836000 0.479800
vt 0.845700 0.421300
vt 0.832100 0.494000
vt 0.842500 0.475300
vt 0.842800 0.445200
vt 0.871200 0.353000
vt 0.841200 0.487900
vt 0.847600 0.478000
vt 0.848500 0.463500
vt 0.848000 0.447800
vt 0.850400 0.432300
vt 0.853200 0.414400
vt 0.853100 0.484100
vt 0.856000 0.445700
vt 0.863400 0.418800
vt 0.861000 0.409000
vt 0.874600 0.433300
vt 0.871100 0.508400
vt 0.872600 0.348100
vt 0.887000 0.359900
vt 0.879100 0.338100
vt 0.873200 0.343200
vt 0.879900 0.368200
vt 0.888200 0.448700
vt 0.891100 0.545100
vt 0.903600 0.698600
vt 0.885700 0.444000
vt 0.891400 0.484400
vt 0.899600 0.371400
vt 0.898300 0.494400
vt 0.898400 0.458100
vt 0.908900 0.411700
vt 0.903300 0.484600
vt 0.908500 0.466200
vt 0.905200 0.364600
vt 0.906800 0.409600
vt 0.914400 0.569100
vt 0.905900 0.513100
vt 0.928300 0.678600
vt 0.939700 0.616900
vt 0.920700 0.367800
vt 0.926500 0.499100
vt 0.916900 0.485500
vt 0.919500 0.363800
vt 0.929000 0.458700
vt 0.916500 0.462800
vt 0.921800 0.407800
vt 0.926100 0.400600
vt 0.929900 0.444200
vt 0.926300 0.405200
vt 0.927800 0.417600
vt 0.945100 0.560500
vt 0.929200 0.380400
vt 0.927800 0.373500
vt 0.928900 0.380200
vt 0.928700 0.369800
vt 0.944500 0.503200
vt 0.947200 0.646400
vt 0.952500 0.599600
vt 0.954800 0.544200
vt 0.957900 0.579500
vt 0.960400 0.551900
vt 0.955600 0.622000
vt 0.961400 0.609900
vt 0.957700 0.553000
vt 0.967500 0.609100
vt 0.968400 0.593700
vt 0.817200 0.510100
vt 0.836700 0.518300
vt 0.851500 0.502700
vt 0.843200 0.522800
vt 0.846200 0.525000
vt 0.853200 0.523700
vt 0.879800 0.504400
vt 0.893900 0.485300
vt 0.889500 0.509000
vt 0.891500 0.506600
vt 0.891800 0.510200
vt 0.895500 0.511900
vt 0.903600 0.509300
vt 0.903800 0.520600
vt 0.917600 0.537100
vt 0.926300 0.456200
vt 0.934000 0.540300
vt 0.931700 0.534400
vt 0.936100 0.516000
vt 0.947300 0.546400
vt 0.944800 0.536900
s 0
usemtl mat_3-ZEBBODY.jpg
f 5/5/1 1/1/1 6/6/1
f 1/1/2 5/5/2 3/3/2
f 1/1/3 2/2/3 9/9/3
f 1/1/4 9/9/4 6/6/4
f 10/10/5 2/2/5 4/4/5
f 10/10/6 9/9/6 2/2/6
f 7/7/7 10/10/7 4/4/7
f 13/13/8 5/5/8 14/14/8
f 5/5/9 13/13/9 3/3/9
f 14/14/10 5/5/10 6/6/10
f 11/11/11 15/15/11 16/16/11
f 17/17/12 12/12/12 16/16/12
f 16/16/13 12/12/13 11/11/13
f 12/12/14 17/17/14 18/18/14
f 18/18/15 7/7/15 12/12/15
f 19/19/16 7/7/16 18/18/16
f 10/10/17 7/7/17 19/19/17
f 13/13/18 8/8/18 3/3/18
f 14/14/19 6/6/19 20/20/19
f 6/6/20 9/9/20 20/20/20
f 16/16/21 15/15/21 21/21/21
f 17/17/22 21/21/22 22/22/22
f 21/21/23 17/17/23 16/16/23
f 22/22/24 18/18/24 17/17/24
f 23/23/25 18/18/25 22/22/25
f 23/23/26 19/19/26 18/18/26
f 19/19/27 23/23/27 10/10/27
f 24/24/28 10/10/28 23/23/28
f 8/8/29 13/13/29 25/25/29
f 14/14/30 25/25/30 13/13/30
f 14/14/31 26/26/31 25/25/31
f 14/14/32 20/20/32 26/26/32
f 10/10/33 27/27/33 9/9/33
f 28/28/34 21/21/34 15/15/34
f 21/21/35 28/28/35 29/29/35
f 22/22/36 21/21/36 29/29/36
f 30/30/37 23/23/37 31/31/37
f 30/30/38 24/24/38 23/23/38
f 25/25/39 32/32/39 8/8/39
f 32/32/40 25/25/40 33/33/40
f 26/26/41 33/33/41 25/25/41
f 34/34/42 26/26/42 20/20/42
f 26/26/43 34/34/43 33/33/43
f 20/20/44 35/35/44 34/34/44
f 20/20/45 9/9/45 35/35/45
f 27/27/46 10/10/46 24/24/46
f 24/24/47 30/30/47 36/36/47
f 37/37/48 24/24/48 36/36/48
f 22/22/49 29/29/49 38/38/49
f 27/27/50 39/39/50 9/9/50
f 24/24/51 37/37/51 27/27/51
f 27/27/52 37/37/52 39/39/52
f 37/37/53 36/36/53 40/40/53
f 37/37/54 40/40/54 41/41/54
f 36/36/55 30/30/55 42/42/55
f 23/23/56 22/22/56 31/31/56
f 31/31/57 42/42/57 30/30/57
f 34/34/58 32/32/58 33/33/58
f 9/9/59 39/39/59 43/43/59
f 9/9/60 43/43/60 35/35/60
f 39/39/61 41/41/61 43/43/61
f 41/41/62 39/39/62 37/37/62
f 40/40/63 44/44/63 41/41/63
f 36/36/64 45/45/64 40/40/64
f 36/36/65 42/42/65 45/45/65
f 22/22/66 38/38/66 31/31/66
f 46/46/67 42/42/67 31/31/67
f 47/47/68 35/35/68 43/43/68
f 47/47/69 41/41/69 44/44/69
f 41/41/70 47/47/70 43/43/70
f 48/48/71 44/44/71 49/49/71
f 40/40/72 49/49/72 44/44/72
f 50/50/73 40/40/73 45/45/73
f 40/40/74 50/50/74 49/49/74
f 45/45/75 51/51/75 50/50/75
f 42/42/76 51/51/76 45/45/76
f 42/42/77 52/52/77 51/51/77
f 35/35/78 47/47/78 53/53/78
f 48/48/79 47/47/79 44/44/79
f 47/47/80 48/48/80 53/53/80
f 53/53/81 48/48/81 49/49/81
f 53/53/82 49/49/82 54/54/82
f 50/50/83 54/54/83 49/49/83
f 54/54/84 50/50/84 51/51/84
f 54/54/85 51/51/85 55/55/85
f 51/51/86 56/56/86 55/55/86
f 56/56/87 51/51/87 52/52/87
f 54/54/88 55/55/88 57/57/88
f 35/35/89 58/58/89 34/34/89
f 53/53/90 58/58/90 35/35/90
f 38/38/91 59/59/91 31/31/91
f 57/57/92 55/55/92 60/60/92
f 56/56/93 60/60/93 55/55/93
f 61/61/94 59/59/94 38/38/94
f 42/42/95 60/60/95 52/52/95
f 59/59/96 62/62/96 31/31/96
f 62/62/97 46/46/97 31/31/97
f 46/46/98 60/60/98 42/42/98
f 53/53/99 54/54/99 57/57/99
f 38/38/100 63/63/100 61/61/100
f 60/60/101 56/56/101 52/52/101
f 58/58/102 53/53/102 64/64/102
f 57/57/103 64/64/103 53/53/103
f 34/34/104 65/65/104 32/32/104
f 58/58/105 65/65/105 34/34/105
f 32/32/106 66/66/106 8/8/106
f 67/67/107 63/63/107 38/38/107
f 64/64/108 68/68/108 58/58/108
f 60/60/109 64/64/109 57/57/109
f 65/65/110 58/58/110 68/68/110
f 69/69/111 63/63/111 67/67/111
f 70/70/112 68/68/112 71/71/112
f 64/64/113 71/71/113 68/68/113
f 69/69/114 67/67/114 72/72/114
f 68/68/115 70/70/115 65/65/115
f 73/73/116 70/70/116 71/71/116
f 71/71/117 74/74/117 73/73/117
f 74/74/118 71/71/118 76/76/118
f 64/64/119 76/76/119 71/71/119
f 77/77/120 65/65/120 78/78/120
f 32/32/121 79/79/121 66/66/121
f 76/76/122 64/64/122 75/75/122
f 70/70/123 78/78/123 65/65/123
f 60/60/124 75/75/124 64/64/124
f 78/78/125 70/70/125 73/73/125
f 65/65/126 77/77/126 32/32/126
f 32/32/127 80/80/127 79/79/127
f 69/69/128 72/72/128 81/81/128
f 78/78/129 73/73/129 74/74/129
f 82/82/130 77/77/130 78/78/130
f 82/82/131 78/78/131 83/83/131
f 84/84/132 76/76/132 75/75/132
f 74/74/133 83/83/133 78/78/133
f 74/74/134 76/76/134 85/85/134
f 86/86/135 87/87/135 72/72/135
f 72/72/136 87/87/136 81/81/136
f 82/82/137 83/83/137 85/85/137
f 74/74/138 85/85/138 83/83/138
f 85/85/139 76/76/139 88/88/139
f 87/87/140 89/89/140 90/90/140
f 90/90/141 89/89/141 91/91/141
f 89/89/142 85/85/142 91/91/142
f 82/82/143 92/92/143 77/77/143
f 93/93/144 90/90/144 91/91/144
f 91/91/145 88/88/145 93/93/145
f 88/88/146 91/91/146 85/85/146
f 94/94/147 87/87/147 90/90/147
f 87/87/148 94/94/148 81/81/148
f 90/90/149 93/93/149 94/94/149
f 95/95/150 93/93/150 88/88/150
f 96/96/151 95/95/151 88/88/151
f 88/88/152 84/84/152 96/96/152
f 84/84/153 88/88/153 76/76/153
f 77/77/154 80/80/154 32/32/154
f 85/85/155 92/92/155 82/82/155
f 85/85/156 89/89/156 97/97/156
f 77/77/157 92/92/157 80/80/157
f 98/98/158 79/79/158 80/80/158
f 99/99/159 80/80/159 92/92/159
f 85/85/160 100/100/160 92/92/160
f 101/101/161 99/99/161 92/92/161
f 85/85/162 102/102/162 100/100/162
f 85/85/163 97/97/163 102/102/163
f 98/98/164 80/80/164 103/103/164
f 99/99/165 103/103/165 80/80/165
f 99/99/166 101/101/166 104/104/166
f 100/100/167 101/101/167 92/92/167
f 97/97/168 105/105/168 102/102/168
f 104/104/169 101/101/169 106/106/169
f 100/100/170 107/107/170 101/101/170
f 100/100/171 102/102/171 107/107/171
f 99/99/172 104/104/172 103/103/172
f 101/101/173 107/107/173 106/106/173
f 15/15/174 108/108/174 28/28/174
f 108/108/175 15/15/175 11/11/175
f 38/38/176 29/29/176 28/28/176
f 110/110/177 28/28/177 109/109/177
f 110/110/178 38/38/178 28/28/178
f 110/110/179 109/109/179 111/111/179
f 112/112/180 110/110/180 111/111/180
f 113/113/181 110/110/181 112/112/181
f 113/113/182 114/114/182 110/110/182
f 67/67/183 38/38/183 110/110/183
f 110/110/184 114/114/184 67/67/184
f 115/115/185 67/67/185 114/114/185
f 117/117/186 115/115/186 114/114/186
f 117/117/187 116/116/187 118/118/187
f 119/119/188 117/117/188 118/118/188
f 72/72/189 67/67/189 115/115/189
f 120/120/190 117/117/190 119/119/190
f 120/120/191 115/115/191 117/117/191
f 120/120/192 119/119/192 121/121/192
f 86/86/193 72/72/193 115/115/193
f 120/120/194 86/86/194 115/115/194
f 87/87/195 86/86/195 123/123/195
f 123/123/196 89/89/196 87/87/196
f 125/125/197 122/122/197 124/124/197
f 125/125/198 121/121/198 122/122/198
f 121/121/199 125/125/199 120/120/199
f 123/123/200 97/97/200 89/89/200
f 126/126/201 86/86/201 120/120/201
f 126/126/202 123/123/202 86/86/202
f 125/125/203 124/124/203 127/127/203
f 126/126/204 120/120/204 125/125/204
f 127/127/205 128/128/205 125/125/205
f 128/128/206 126/126/206 125/125/206
f 126/126/207 128/128/207 97/97/207
f 126/126/208 97/97/208 123/123/208
f 128/128/209 127/127/209 105/105/209
f 97/97/210 128/128/210 105/105/210
