# This file uses centimeters as units for non-parametric coordinates.

mtllib Ala_der.mtl
g default
v 58.176639 2.250413 -42.176359
v 58.247784 2.256006 -41.989592
v 58.336770 2.160037 -42.159355
v 58.395093 2.172506 -41.975936
v 58.488119 2.057147 -42.138231
v 58.522365 2.071790 -42.060331
v 58.579435 1.988615 -42.154261
v 58.573295 1.984736 -42.174860
v 58.058023 2.340114 -42.002898
v 58.014244 2.347643 -42.104554
v 58.089073 2.379275 -41.917713
v 58.526482 2.090071 -42.072010
v 58.491938 2.067872 -42.146981
v 58.345382 2.175333 -42.158908
v 58.586861 2.001186 -42.163224
v 58.581018 1.996149 -42.177704
v 58.336770 2.160037 -42.159355
v 58.488119 2.057147 -42.138231
v 58.573295 1.984736 -42.174860
v 58.579435 1.988615 -42.154261
v 58.522365 2.071790 -42.060331
v 58.395093 2.172506 -41.975936
v 58.416131 2.216686 -42.007342
v 58.269493 2.309972 -42.027577
v 58.228241 2.312264 -42.113878
v 58.261532 2.276738 -41.985392
v 58.247784 2.256006 -41.989592
v 58.174357 2.283453 -42.181178
v 58.176639 2.250413 -42.176359
v 58.035285 2.417191 -42.142797
v 58.066352 2.465436 -42.066382
v 58.014244 2.347643 -42.104554
v 58.102248 2.476040 -41.945796
v 58.104792 2.433388 -41.907954
v 58.089073 2.379275 -41.917713
vt 0.651900 0.751600
vt 0.564500 0.734600
vt 0.594700 0.599900
vt 0.807600 0.664600
vt 0.716800 0.782800
vt 0.651900 0.751600
vt 0.703100 0.499500
vt 0.895000 0.575700
vt 0.833000 0.397500
vt 0.918000 0.427700
vt 0.941400 0.342300
vt 0.903300 0.332500
vt 0.657200 0.470200
vt 0.591800 0.457000
vt 0.596200 0.339400
vt 0.587400 0.535400
vt 0.578600 0.535400
vt 0.585000 0.338900
vt 0.581100 0.456500
vt 0.573200 0.538800
vt 0.592800 0.544400
vt 0.670400 0.481000
vt 0.774900 0.381800
vt 0.736800 0.369100
vt 0.762200 0.259800
vt 0.670400 0.226600
vt 0.726600 0.068400
vt 0.815900 0.281700
vt 0.838400 0.290000
vt 0.870600 0.103500
vt 0.870600 0.103500
vt 0.846700 0.062000
vt 0.846700 0.062000
vt 0.814500 0.060100
vt 0.726600 0.068400
vt 0.599600 0.208500
vt 0.653800 0.068400
vt 0.653800 0.068400
vt 0.597700 0.064500
vt 0.597700 0.064500
vt 0.582000 0.216800
vn -0.464313 -0.875301 0.135134
vn -0.464313 -0.875301 0.135134
vn -0.464313 -0.875301 0.135134
vn -0.380487 -0.779781 0.497163
vn -0.380487 -0.779781 0.497163
vn -0.380487 -0.779781 0.497163
vn -0.409076 -0.894044 0.182599
vn -0.409075 -0.894044 0.182599
vn -0.409076 -0.894044 0.182599
vn -0.497244 -0.840655 0.214586
vn -0.497244 -0.840655 0.214586
vn -0.497244 -0.840655 0.214586
vn -0.496599 -0.840913 0.215070
vn -0.496599 -0.840913 0.215070
vn -0.496599 -0.840913 0.215070
vn -0.568705 -0.788427 0.234430
vn -0.568705 -0.788427 0.234430
vn -0.568705 -0.788427 0.234430
vn -0.430382 -0.833733 0.345919
vn -0.430382 -0.833733 0.345919
vn -0.430382 -0.833733 0.345919
vn -0.514694 -0.772702 0.371513
vn -0.514694 -0.772702 0.371513
vn -0.514694 -0.772702 0.371513
vn -0.535959 -0.786133 0.307803
vn -0.535959 -0.786133 0.307803
vn -0.535959 -0.786133 0.307803
vn 0.549161 0.697928 -0.459695
vn 0.549161 0.697928 -0.459695
vn 0.549161 0.697928 -0.459695
vn 0.464077 0.768065 -0.441258
vn 0.464077 0.768065 -0.441258
vn 0.464077 0.768065 -0.441258
vn 0.459884 0.764600 -0.451545
vn 0.459884 0.764600 -0.451545
vn 0.459884 0.764600 -0.451545
vn 0.072564 -0.011732 -0.997295
vn 0.072564 -0.011732 -0.997295
vn 0.072564 -0.011732 -0.997295
vn -0.264406 -0.551380 -0.791246
vn -0.264406 -0.551380 -0.791246
vn -0.264406 -0.551380 -0.791246
vn -0.565384 -0.391134 -0.726192
vn -0.565384 -0.391134 -0.726192
vn -0.565384 -0.391134 -0.726192
vn -0.377230 0.024584 -0.925793
vn -0.377230 0.024584 -0.925793
vn -0.377230 0.024584 -0.925793
vn 0.806978 -0.577242 -0.124813
vn 0.806978 -0.577242 -0.124813
vn 0.806978 -0.577242 -0.124813
vn 0.808809 -0.572772 -0.133268
vn 0.808809 -0.572772 -0.133268
vn 0.808809 -0.572772 -0.133268
vn 0.806331 -0.056463 0.588763
vn 0.806331 -0.056463 0.588763
vn 0.806331 -0.056463 0.588763
vn 0.885091 0.092101 0.456214
vn 0.885091 0.092101 0.456215
vn 0.885091 0.092101 0.456215
vn 0.675446 0.282915 0.680979
vn 0.675446 0.282915 0.680979
vn 0.675446 0.282915 0.680979
vn 0.657656 0.202598 0.725563
vn 0.657656 0.202598 0.725563
vn 0.657656 0.202598 0.725563
vn 0.616876 0.737348 -0.275286
vn 0.616876 0.737348 -0.275286
vn 0.616876 0.737347 -0.275286
vn 0.544469 0.804039 -0.238904
vn 0.544469 0.804039 -0.238904
vn 0.544469 0.804039 -0.238904
vn 0.359284 0.698915 0.618412
vn 0.359284 0.698915 0.618412
vn 0.359284 0.698915 0.618412
vn 0.296181 0.455676 0.839426
vn 0.296181 0.455676 0.839426
vn 0.296181 0.455676 0.839426
vn -0.148392 -0.100888 0.983769
vn -0.148392 -0.100888 0.983769
vn -0.148392 -0.100888 0.983769
vn 0.182053 -0.309770 0.933220
vn 0.182053 -0.309770 0.933220
vn 0.182053 -0.309770 0.933220
vn 0.229593 -0.236934 0.944007
vn 0.229593 -0.236934 0.944007
vn 0.229593 -0.236934 0.944007
vn 0.721539 0.471153 0.507343
vn 0.721539 0.471153 0.507343
vn 0.721539 0.471153 0.507343
vn 0.721874 0.482863 0.495722
vn 0.721874 0.482863 0.495722
vn 0.721874 0.482863 0.495722
vn 0.618131 0.745408 -0.249560
vn 0.618131 0.745408 -0.249560
vn 0.618131 0.745408 -0.249560
vn 0.547711 0.706370 -0.448389
vn 0.547711 0.706370 -0.448389
vn 0.547711 0.706370 -0.448389
vn 0.595461 0.660025 -0.458032
vn 0.595461 0.660025 -0.458032
vn 0.595461 0.660025 -0.458032
vn 0.469334 0.611111 -0.637392
vn 0.469334 0.611111 -0.637392
vn 0.469334 0.611111 -0.637392
vn 0.442265 0.640171 -0.628159
vn 0.442265 0.640171 -0.628159
vn 0.442265 0.640171 -0.628159
vn 0.449627 0.661375 -0.600349
vn 0.449627 0.661375 -0.600349
vn 0.449627 0.661375 -0.600349
vn -0.505785 -0.293115 -0.811335
vn -0.505785 -0.293115 -0.811335
vn -0.505785 -0.293115 -0.811335
vn -0.477330 -0.159019 -0.864216
vn -0.477330 -0.159019 -0.864216
vn -0.477330 -0.159019 -0.864216
vn 0.039314 -0.141552 -0.989150
vn 0.039314 -0.141552 -0.989150
vn 0.039314 -0.141552 -0.989150
vn 0.092660 -0.023103 -0.995430
vn 0.092660 -0.023103 -0.995430
vn 0.092660 -0.023103 -0.995430
s off
g pasted__Ala_izq_polySurface4 group1
usemtl pasted__Ala_izq_mat_0_TPenguin_Diffuse_jpg2
f 9/1/1 10/2/2 1/3/3
f 2/4/4 11/5/5 9/1/6
f 9/6/7 1/3/8 2/4/9
f 3/7/10 2/4/11 1/3/12
f 3/7/13 4/8/14 2/4/15
f 5/9/16 4/8/17 3/7/18
f 5/9/19 6/10/20 4/8/21
f 5/9/22 7/11/23 6/10/24
f 5/9/25 8/12/26 7/11/27
f 12/13/28 13/14/29 14/15/30
f 15/16/31 13/14/32 12/13/33
f 15/16/34 16/17/35 13/14/36
f 17/18/37 14/15/38 13/14/39
f 17/18/40 13/14/41 18/19/42
f 16/17/43 18/19/44 13/14/45
f 16/17/46 19/20/47 18/19/48
f 19/20/49 16/17/50 15/16/51
f 19/20/52 15/16/53 20/21/54
f 12/13/55 20/21/56 15/16/57
f 12/13/58 21/22/59 20/21/60
f 12/13/61 22/23/62 21/22/63
f 12/13/64 23/24/65 22/23/66
f 24/25/67 25/26/68 31/27/69
f 23/24/70 25/26/71 24/25/72
f 26/28/73 23/24/74 24/25/75
f 26/28/76 22/23/77 23/24/78
f 22/23/79 26/28/80 27/29/81
f 35/30/82 27/29/83 26/28/84
f 35/31/85 26/28/86 34/32/87
f 34/33/88 26/28/89 24/25/90
f 34/32/91 24/25/92 33/34/93
f 24/25/94 31/35/95 33/34/96
f 12/13/97 14/15/98 23/24/99
f 14/15/100 25/26/101 23/24/102
f 14/15/103 28/36/104 25/26/105
f 25/26/106 28/36/107 30/37/108
f 25/26/109 30/38/110 31/35/111
f 32/39/112 30/38/113 28/36/114
f 32/40/115 28/36/116 29/41/117
f 14/15/118 29/41/119 28/36/120
f 14/15/121 17/18/122 29/41/123
